<svg id="visual" viewBox="0 0 360 768" width="360" height="768" xmlns="http://www.w3.org/2000/svg" xmlns:xlink="http://www.w3.org/1999/xlink" version="1.1"><rect x="0" y="0" width="360" height="768" fill="#F2F5FC"></rect><defs><linearGradient id="grad1_0" x1="0%" y1="100%" x2="100%" y2="0%"><stop offset="30%" stop-color="#4facf7" stop-opacity="1"></stop><stop offset="70%" stop-color="#4facf7" stop-opacity="1"></stop></linearGradient></defs><defs><linearGradient id="grad1_1" x1="0%" y1="100%" x2="100%" y2="0%"><stop offset="30%" stop-color="#4facf7" stop-opacity="1"></stop><stop offset="70%" stop-color="#b1cffa" stop-opacity="1"></stop></linearGradient></defs><defs><linearGradient id="grad1_2" x1="0%" y1="100%" x2="100%" y2="0%"><stop offset="30%" stop-color="#f2f5fc" stop-opacity="1"></stop><stop offset="70%" stop-color="#b1cffa" stop-opacity="1"></stop></linearGradient></defs><defs><linearGradient id="grad2_0" x1="0%" y1="100%" x2="100%" y2="0%"><stop offset="30%" stop-color="#4facf7" stop-opacity="1"></stop><stop offset="70%" stop-color="#4facf7" stop-opacity="1"></stop></linearGradient></defs><defs><linearGradient id="grad2_1" x1="0%" y1="100%" x2="100%" y2="0%"><stop offset="30%" stop-color="#b1cffa" stop-opacity="1"></stop><stop offset="70%" stop-color="#4facf7" stop-opacity="1"></stop></linearGradient></defs><defs><linearGradient id="grad2_2" x1="0%" y1="100%" x2="100%" y2="0%"><stop offset="30%" stop-color="#b1cffa" stop-opacity="1"></stop><stop offset="70%" stop-color="#f2f5fc" stop-opacity="1"></stop></linearGradient></defs><g transform="translate(360, 768)"><path d="M-324 0C-320.1 -45.8 -316.2 -91.5 -291.9 -120.9C-267.7 -150.3 -222.9 -163.4 -194.5 -194.5C-166 -225.6 -153.7 -274.7 -124 -299.3C-94.3 -323.9 -47.1 -324 0 -324L0 0Z" fill="#d3e1fb"></path><path d="M-216 0C-213.4 -30.5 -210.8 -61 -194.6 -80.6C-178.4 -100.2 -148.6 -108.9 -129.6 -129.6C-110.6 -150.4 -102.5 -183.2 -82.7 -199.6C-62.9 -216 -31.4 -216 0 -216L0 0Z" fill="#88bdf9"></path><path d="M-108 0C-106.7 -15.3 -105.4 -30.5 -97.3 -40.3C-89.2 -50.1 -74.3 -54.5 -64.8 -64.8C-55.3 -75.2 -51.2 -91.6 -41.3 -99.8C-31.4 -108 -15.7 -108 0 -108L0 0Z" fill="#4facf7"></path></g><g transform="translate(0, 0)"><path d="M324 0C297.1 34 270.2 68.1 255.9 106C241.7 143.9 240.1 185.8 220.6 220.6C201.1 255.5 163.7 283.3 124 299.3C84.2 315.4 42.1 319.7 0 324L0 0Z" fill="#d3e1fb"></path><path d="M216 0C198.1 22.7 180.1 45.4 170.6 70.7C161.1 96 160.1 123.9 147.1 147.1C134.1 170.3 109.2 188.8 82.7 199.6C56.2 210.3 28.1 213.1 0 216L0 0Z" fill="#88bdf9"></path><path d="M108 0C99 11.3 90.1 22.7 85.3 35.3C80.6 48 80 61.9 73.5 73.5C67 85.2 54.6 94.4 41.3 99.8C28.1 105.1 14 106.6 0 108L0 0Z" fill="#4facf7"></path></g></svg>