<svg id="visual" viewBox="0 0 360 768" width="360" height="768" xmlns="http://www.w3.org/2000/svg" xmlns:xlink="http://www.w3.org/1999/xlink" version="1.1"><rect x="0" y="0" width="360" height="768" fill="#001220"></rect><path d="M0 552L8.5 548.8C17 545.7 34 539.3 51.2 527.3C68.3 515.3 85.7 497.7 102.8 501.5C120 505.3 137 530.7 154.2 538.2C171.3 545.7 188.7 535.3 205.8 521.7C223 508 240 491 257.2 483.7C274.3 476.3 291.7 478.7 308.8 494.2C326 509.7 343 538.3 351.5 552.7L360 567L360 769L351.5 769C343 769 326 769 308.8 769C291.7 769 274.3 769 257.2 769C240 769 223 769 205.8 769C188.7 769 171.3 769 154.2 769C137 769 120 769 102.8 769C85.7 769 68.3 769 51.2 769C34 769 17 769 8.5 769L0 769Z" fill="#fa7268"></path><path d="M0 506L8.5 522.2C17 538.3 34 570.7 51.2 578.7C68.3 586.7 85.7 570.3 102.8 562.2C120 554 137 554 154.2 546.5C171.3 539 188.7 524 205.8 528.7C223 533.3 240 557.7 257.2 571.8C274.3 586 291.7 590 308.8 583C326 576 343 558 351.5 549L360 540L360 769L351.5 769C343 769 326 769 308.8 769C291.7 769 274.3 769 257.2 769C240 769 223 769 205.8 769C188.7 769 171.3 769 154.2 769C137 769 120 769 102.8 769C85.7 769 68.3 769 51.2 769C34 769 17 769 8.5 769L0 769Z" fill="#ef5f67"></path><path d="M0 600L8.5 596.8C17 593.7 34 587.3 51.2 585C68.3 582.7 85.7 584.3 102.8 583.5C120 582.7 137 579.3 154.2 583.7C171.3 588 188.7 600 205.8 610.8C223 621.7 240 631.3 257.2 631.3C274.3 631.3 291.7 621.7 308.8 614.7C326 607.7 343 603.3 351.5 601.2L360 599L360 769L351.5 769C343 769 326 769 308.8 769C291.7 769 274.3 769 257.2 769C240 769 223 769 205.8 769C188.7 769 171.3 769 154.2 769C137 769 120 769 102.8 769C85.7 769 68.3 769 51.2 769C34 769 17 769 8.5 769L0 769Z" fill="#e34c67"></path><path d="M0 645L8.5 652.3C17 659.7 34 674.3 51.2 681.2C68.3 688 85.7 687 102.8 683.3C120 679.7 137 673.3 154.2 665.5C171.3 657.7 188.7 648.3 205.8 650.3C223 652.3 240 665.7 257.2 674.2C274.3 682.7 291.7 686.3 308.8 685.8C326 685.3 343 680.7 351.5 678.3L360 676L360 769L351.5 769C343 769 326 769 308.8 769C291.7 769 274.3 769 257.2 769C240 769 223 769 205.8 769C188.7 769 171.3 769 154.2 769C137 769 120 769 102.8 769C85.7 769 68.3 769 51.2 769C34 769 17 769 8.5 769L0 769Z" fill="#d53867"></path><path d="M0 715L8.5 716.8C17 718.7 34 722.3 51.2 720.3C68.3 718.3 85.7 710.7 102.8 710.3C120 710 137 717 154.2 717.7C171.3 718.3 188.7 712.7 205.8 713.7C223 714.7 240 722.3 257.2 722.3C274.3 722.3 291.7 714.7 308.8 712.8C326 711 343 715 351.5 717L360 719L360 769L351.5 769C343 769 326 769 308.8 769C291.7 769 274.3 769 257.2 769C240 769 223 769 205.8 769C188.7 769 171.3 769 154.2 769C137 769 120 769 102.8 769C85.7 769 68.3 769 51.2 769C34 769 17 769 8.5 769L0 769Z" fill="#c62368"></path></svg>