<svg id="visual" viewBox="0 0 360 768" width="360" height="768" xmlns="http://www.w3.org/2000/svg" xmlns:xlink="http://www.w3.org/1999/xlink" version="1.1"><path d="M0 124L33 124L33 132L65 132L65 85L98 85L98 109L131 109L131 139L164 139L164 139L196 139L196 78L229 78L229 55L262 55L262 78L295 78L295 70L327 70L327 132L360 132L360 132L360 0L360 0L327 0L327 0L295 0L295 0L262 0L262 0L229 0L229 0L196 0L196 0L164 0L164 0L131 0L131 0L98 0L98 0L65 0L65 0L33 0L33 0L0 0Z" fill="#fa7268"></path><path d="M0 247L33 247L33 231L65 231L65 285L98 285L98 239L131 239L131 216L164 216L164 208L196 208L196 178L229 178L229 254L262 254L262 301L295 301L295 193L327 193L327 316L360 316L360 201L360 130L360 130L327 130L327 68L295 68L295 76L262 76L262 53L229 53L229 76L196 76L196 137L164 137L164 137L131 137L131 107L98 107L98 83L65 83L65 130L33 130L33 122L0 122Z" fill="#ea5e66"></path><path d="M0 339L33 339L33 324L65 324L65 347L98 347L98 370L131 370L131 316L164 316L164 308L196 308L196 270L229 270L229 316L262 316L262 377L295 377L295 285L327 285L327 431L360 431L360 324L360 199L360 314L327 314L327 191L295 191L295 299L262 299L262 252L229 252L229 176L196 176L196 206L164 206L164 214L131 214L131 237L98 237L98 283L65 283L65 229L33 229L33 245L0 245Z" fill="#d84a64"></path><path d="M0 577L33 577L33 531L65 531L65 623L98 623L98 500L131 500L131 523L164 523L164 523L196 523L196 462L229 462L229 615L262 615L262 661L295 661L295 477L327 477L327 615L360 615L360 500L360 322L360 429L327 429L327 283L295 283L295 375L262 375L262 314L229 314L229 268L196 268L196 306L164 306L164 314L131 314L131 368L98 368L98 345L65 345L65 322L33 322L33 337L0 337Z" fill="#c53762"></path><path d="M0 769L33 769L33 769L65 769L65 769L98 769L98 769L131 769L131 769L164 769L164 769L196 769L196 769L229 769L229 769L262 769L262 769L295 769L295 769L327 769L327 769L360 769L360 769L360 498L360 613L327 613L327 475L295 475L295 659L262 659L262 613L229 613L229 460L196 460L196 521L164 521L164 521L131 521L131 498L98 498L98 621L65 621L65 529L33 529L33 575L0 575Z" fill="#b0235f"></path></svg>