<svg id="visual" viewBox="0 0 360 768" width="360" height="768" xmlns="http://www.w3.org/2000/svg" xmlns:xlink="http://www.w3.org/1999/xlink" version="1.1"><path d="M0 116L12 113.5C24 111 48 106 72 98.3C96 90.7 120 80.3 144 79C168 77.7 192 85.3 216 93C240 100.7 264 108.3 288 107C312 105.7 336 95.3 348 90.2L360 85L360 0L348 0C336 0 312 0 288 0C264 0 240 0 216 0C192 0 168 0 144 0C120 0 96 0 72 0C48 0 24 0 12 0L0 0Z" fill="#6198ff"></path><path d="M0 208L12 205.5C24 203 48 198 72 184C96 170 120 147 144 141.8C168 136.7 192 149.3 216 163.3C240 177.3 264 192.7 288 200.3C312 208 336 208 348 208L360 208L360 83L348 88.2C336 93.3 312 103.7 288 105C264 106.3 240 98.7 216 91C192 83.3 168 75.7 144 77C120 78.3 96 88.7 72 96.3C48 104 24 109 12 111.5L0 114Z" fill="#3c80ff"></path><path d="M0 408L12 409.3C24 410.7 48 413.3 72 423.5C96 433.7 120 451.3 144 448.7C168 446 192 423 216 418C240 413 264 426 288 446.5C312 467 336 495 348 509L360 523L360 206L348 206C336 206 312 206 288 198.3C264 190.7 240 175.3 216 161.3C192 147.3 168 134.7 144 139.8C120 145 96 168 72 182C48 196 24 201 12 203.5L0 206Z" fill="#0066ff"></path><path d="M0 654L12 641.2C24 628.3 48 602.7 72 603.8C96 605 120 633 144 633C168 633 192 605 216 602.5C240 600 264 623 288 635.8C312 648.7 336 651.3 348 652.7L360 654L360 521L348 507C336 493 312 465 288 444.5C264 424 240 411 216 416C192 421 168 444 144 446.7C120 449.3 96 431.7 72 421.5C48 411.3 24 408.7 12 407.3L0 406Z" fill="#0059dd"></path><path d="M0 769L12 769C24 769 48 769 72 769C96 769 120 769 144 769C168 769 192 769 216 769C240 769 264 769 288 769C312 769 336 769 348 769L360 769L360 652L348 650.7C336 649.3 312 646.7 288 633.8C264 621 240 598 216 600.5C192 603 168 631 144 631C120 631 96 603 72 601.8C48 600.7 24 626.3 12 639.2L0 652Z" fill="#004cbb"></path></svg>