<svg id="visual" viewBox="0 0 360 768" width="360" height="768" xmlns="http://www.w3.org/2000/svg" xmlns:xlink="http://www.w3.org/1999/xlink" version="1.1"><path d="M0 104L8.5 108.7C17 113.3 34 122.7 51.2 121.8C68.3 121 85.7 110 102.8 112.3C120 114.7 137 130.3 154.2 138.2C171.3 146 188.7 146 205.8 166.8C223 187.7 240 229.3 257.2 224.5C274.3 219.7 291.7 168.3 308.8 145.7C326 123 343 129 351.5 132L360 135L360 0L351.5 0C343 0 326 0 308.8 0C291.7 0 274.3 0 257.2 0C240 0 223 0 205.8 0C188.7 0 171.3 0 154.2 0C137 0 120 0 102.8 0C85.7 0 68.3 0 51.2 0C34 0 17 0 8.5 0L0 0Z" fill="#4FACF7" stroke-linecap="round" stroke-linejoin="miter"></path></svg>