<svg id="visual" viewBox="0 0 360 768" width="360" height="768" xmlns="http://www.w3.org/2000/svg" xmlns:xlink="http://www.w3.org/1999/xlink" version="1.1"><rect x="0" y="0" width="360" height="768" fill="#931C1C"></rect><path d="M0 503L51 539L103 497L154 529L206 522L257 557L309 566L360 459L360 769L309 769L257 769L206 769L154 769L103 769L51 769L0 769Z" fill="#f5730a"></path><path d="M0 532L51 605L103 537L154 519L206 598L257 579L309 601L360 514L360 769L309 769L257 769L206 769L154 769L103 769L51 769L0 769Z" fill="#da5b09"></path><path d="M0 609L51 582L103 623L154 571L206 570L257 618L309 644L360 587L360 769L309 769L257 769L206 769L154 769L103 769L51 769L0 769Z" fill="#be4407"></path><path d="M0 665L51 654L103 687L154 621L206 644L257 633L309 632L360 673L360 769L309 769L257 769L206 769L154 769L103 769L51 769L0 769Z" fill="#a32d04"></path><path d="M0 709L51 672L103 689L154 701L206 719L257 686L309 678L360 674L360 769L309 769L257 769L206 769L154 769L103 769L51 769L0 769Z" fill="#871400"></path></svg>